<svg width="520" height="95" viewBox="0 0 520 95" fill="none" xmlns="http://www.w3.org/2000/svg">
<g clip-path="url(#clip0_2_7)">
<path fill-rule="evenodd" clip-rule="evenodd" d="M43.5417 91.0417C67.5891 91.0417 87.0833 71.5475 87.0833 47.5C87.0833 23.4525 67.5891 3.95833 43.5417 3.95833C19.4942 3.95833 0 23.4525 0 47.5C0 71.5475 19.4942 91.0417 43.5417 91.0417ZM57.1251 24.2418C57.7863 21.8933 55.5071 20.5044 53.4256 21.9873L24.3683 42.6876C22.1109 44.2959 22.4659 47.5 24.9017 47.5H32.5533V47.4408H47.466L35.3149 51.7281L29.9582 70.7582C29.297 73.1068 31.576 74.4956 33.6577 73.0126L62.715 52.3123C64.9725 50.7043 64.6172 47.5 62.1817 47.5H50.5782L57.1251 24.2418Z" fill="#141414"/>
</g>
<path d="M129.36 79C126.352 79 124.048 78.232 122.448 76.696C120.912 75.096 120.144 72.824 120.144 69.88V20.44C120.144 17.496 120.912 15.256 122.448 13.72C124.048 12.12 126.352 11.32 129.36 11.32H152.784C157.648 11.32 161.776 12.056 165.168 13.528C168.624 14.936 171.248 16.952 173.04 19.576C174.832 22.2 175.728 25.272 175.728 28.792C175.728 32.76 174.576 36.152 172.272 38.968C170.032 41.784 166.96 43.704 163.056 44.728V43.192C167.664 44.024 171.216 45.88 173.712 48.76C176.272 51.64 177.552 55.32 177.552 59.8C177.552 65.752 175.408 70.456 171.12 73.912C166.896 77.304 161.104 79 153.744 79H129.36ZM137.04 66.04H151.344C154.608 66.04 156.976 65.432 158.448 64.216C159.984 62.936 160.752 61.048 160.752 58.552C160.752 56.056 159.984 54.2 158.448 52.984C156.976 51.768 154.608 51.16 151.344 51.16H137.04V66.04ZM137.04 38.2H149.616C152.816 38.2 155.152 37.624 156.624 36.472C158.16 35.32 158.928 33.56 158.928 31.192C158.928 28.824 158.16 27.096 156.624 26.008C155.152 24.856 152.816 24.28 149.616 24.28H137.04V38.2ZM194.846 79.864C192.158 79.864 190.078 79.064 188.606 77.464C187.134 75.864 186.398 73.56 186.398 70.552V40.216C186.398 37.208 187.134 34.904 188.606 33.304C190.078 31.704 192.158 30.904 194.846 30.904C197.598 30.904 199.71 31.704 201.182 33.304C202.718 34.904 203.486 37.208 203.486 40.216V70.552C203.486 73.56 202.75 75.864 201.278 77.464C199.806 79.064 197.662 79.864 194.846 79.864ZM194.846 24.088C191.838 24.088 189.502 23.384 187.838 21.976C186.238 20.568 185.438 18.52 185.438 15.832C185.438 13.208 186.238 11.192 187.838 9.784C189.502 8.376 191.838 7.672 194.846 7.672C197.982 7.672 200.35 8.376 201.95 9.784C203.55 11.192 204.35 13.208 204.35 15.832C204.35 18.52 203.55 20.568 201.95 21.976C200.35 23.384 197.982 24.088 194.846 24.088ZM238.166 80.056C233.366 80.056 229.398 79.32 226.262 77.848C223.19 76.376 220.886 74.168 219.35 71.224C217.814 68.216 217.046 64.472 217.046 59.992V44.344H213.782C211.734 44.344 210.134 43.8 208.982 42.712C207.894 41.624 207.35 40.056 207.35 38.008C207.35 35.96 207.894 34.424 208.982 33.4C210.134 32.312 211.734 31.768 213.782 31.768H217.046V25.816C217.046 23 217.782 20.856 219.254 19.384C220.726 17.912 222.838 17.176 225.59 17.176C228.342 17.176 230.454 17.912 231.926 19.384C233.398 20.856 234.134 23 234.134 25.816V31.768H242.006C244.118 31.768 245.718 32.312 246.806 33.4C247.958 34.424 248.534 35.96 248.534 38.008C248.534 40.056 247.958 41.624 246.806 42.712C245.718 43.8 244.118 44.344 242.006 44.344H234.134V59.416C234.134 61.784 234.678 63.544 235.766 64.696C236.918 65.784 238.71 66.328 241.142 66.328C242.038 66.328 242.902 66.232 243.734 66.04C244.566 65.848 245.334 65.752 246.038 65.752C247.062 65.688 247.894 66.008 248.534 66.712C249.174 67.352 249.494 68.856 249.494 71.224C249.494 73.144 249.206 74.776 248.63 76.12C248.054 77.4 247.03 78.328 245.558 78.904C244.662 79.224 243.446 79.48 241.91 79.672C240.374 79.928 239.126 80.056 238.166 80.056ZM275.661 79.864C273.485 79.864 271.597 79.352 269.997 78.328C268.397 77.24 267.117 75.576 266.157 73.336L253.101 41.752C252.269 39.768 251.981 37.976 252.237 36.376C252.493 34.712 253.261 33.4 254.541 32.44C255.885 31.416 257.709 30.904 260.013 30.904C261.997 30.904 263.629 31.384 264.909 32.344C266.189 33.24 267.341 35.032 268.365 37.72L277.581 61.912H275.565L285.261 35.896C285.901 34.168 286.765 32.92 287.853 32.152C289.005 31.32 290.445 30.904 292.173 30.904C294.029 30.904 295.501 31.32 296.589 32.152C297.677 32.984 298.541 34.232 299.181 35.896L308.877 61.912H307.149L316.461 37.144C317.357 34.712 318.509 33.08 319.917 32.248C321.325 31.352 322.829 30.904 324.429 30.904C326.605 30.904 328.269 31.416 329.421 32.44C330.573 33.464 331.213 34.808 331.341 36.472C331.533 38.136 331.213 39.928 330.381 41.848L317.421 73.24C316.525 75.48 315.277 77.144 313.677 78.232C312.077 79.32 310.189 79.864 308.013 79.864C305.773 79.864 303.853 79.32 302.253 78.232C300.717 77.144 299.469 75.48 298.509 73.24L287.949 46.84H294.957L284.973 73.048C284.077 75.352 282.861 77.08 281.325 78.232C279.789 79.32 277.901 79.864 275.661 79.864ZM346.909 79.864C344.221 79.864 342.141 79.064 340.669 77.464C339.197 75.864 338.461 73.56 338.461 70.552V40.216C338.461 37.208 339.197 34.904 340.669 33.304C342.141 31.704 344.221 30.904 346.909 30.904C349.661 30.904 351.773 31.704 353.245 33.304C354.781 34.904 355.549 37.208 355.549 40.216V70.552C355.549 73.56 354.813 75.864 353.341 77.464C351.869 79.064 349.725 79.864 346.909 79.864ZM346.909 24.088C343.901 24.088 341.565 23.384 339.901 21.976C338.301 20.568 337.501 18.52 337.501 15.832C337.501 13.208 338.301 11.192 339.901 9.784C341.565 8.376 343.901 7.672 346.909 7.672C350.045 7.672 352.413 8.376 354.013 9.784C355.613 11.192 356.413 13.208 356.413 15.832C356.413 18.52 355.613 20.568 354.013 21.976C352.413 23.384 350.045 24.088 346.909 24.088ZM384.277 80.056C381.461 80.056 378.581 79.832 375.637 79.384C372.757 79 370.133 78.264 367.765 77.176C366.165 76.536 365.013 75.672 364.309 74.584C363.669 73.496 363.349 72.344 363.349 71.128C363.413 69.912 363.765 68.824 364.405 67.864C365.109 66.84 366.005 66.136 367.093 65.752C368.245 65.304 369.525 65.336 370.933 65.848C373.621 66.808 376.021 67.512 378.133 67.96C380.309 68.344 382.389 68.536 384.373 68.536C386.741 68.536 388.437 68.216 389.461 67.576C390.485 66.872 390.997 65.976 390.997 64.888C390.997 63.928 390.645 63.192 389.941 62.68C389.301 62.168 388.373 61.816 387.157 61.624L376.501 59.896C372.533 59.192 369.461 57.752 367.285 55.576C365.109 53.336 364.021 50.424 364.021 46.84C364.021 43.512 364.949 40.664 366.805 38.296C368.725 35.864 371.317 34.008 374.581 32.728C377.909 31.384 381.717 30.712 386.005 30.712C388.885 30.712 391.509 30.936 393.877 31.384C396.245 31.768 398.549 32.504 400.789 33.592C402.197 34.168 403.189 35 403.765 36.088C404.341 37.176 404.565 38.328 404.437 39.544C404.309 40.696 403.893 41.784 403.189 42.808C402.549 43.768 401.653 44.44 400.501 44.824C399.349 45.144 398.005 45.048 396.469 44.536C394.357 43.704 392.469 43.096 390.805 42.712C389.205 42.328 387.701 42.136 386.293 42.136C383.669 42.136 381.813 42.488 380.725 43.192C379.637 43.896 379.093 44.792 379.093 45.88C379.093 46.712 379.381 47.416 379.957 47.992C380.533 48.504 381.429 48.856 382.645 49.048L393.301 50.872C397.397 51.512 400.533 52.92 402.709 55.096C404.949 57.208 406.069 60.088 406.069 63.736C406.069 68.92 404.085 72.952 400.117 75.832C396.149 78.648 390.869 80.056 384.277 80.056ZM438.814 80.056C433.054 80.056 428.062 79.064 423.838 77.08C419.678 75.032 416.478 72.152 414.238 68.44C411.998 64.728 410.878 60.344 410.878 55.288C410.878 50.424 411.934 46.168 414.046 42.52C416.222 38.808 419.166 35.928 422.878 33.88C426.654 31.768 430.942 30.712 435.742 30.712C439.262 30.712 442.462 31.288 445.342 32.44C448.222 33.528 450.686 35.16 452.734 37.336C454.782 39.448 456.318 42.008 457.342 45.016C458.43 48.024 458.974 51.384 458.974 55.096C458.974 56.376 458.622 57.336 457.918 57.976C457.214 58.552 456.094 58.84 454.558 58.84H425.182V50.776H446.494L444.958 52.024C444.958 49.656 444.638 47.736 443.998 46.264C443.358 44.792 442.398 43.672 441.118 42.904C439.902 42.136 438.366 41.752 436.51 41.752C434.526 41.752 432.798 42.232 431.326 43.192C429.918 44.088 428.83 45.432 428.062 47.224C427.294 49.016 426.91 51.256 426.91 53.944V54.808C426.91 59.352 427.902 62.616 429.886 64.6C431.934 66.52 435.07 67.48 439.294 67.48C440.702 67.48 442.302 67.32 444.094 67C445.95 66.616 447.71 66.104 449.374 65.464C451.038 64.824 452.478 64.728 453.694 65.176C454.91 65.56 455.838 66.264 456.478 67.288C457.182 68.248 457.566 69.368 457.63 70.648C457.694 71.864 457.406 73.08 456.766 74.296C456.126 75.448 455.07 76.344 453.598 76.984C451.358 78.008 448.958 78.776 446.398 79.288C443.902 79.8 441.374 80.056 438.814 80.056ZM474.4 79.576C471.52 79.576 469.216 78.712 467.488 76.984C465.824 75.256 464.992 72.984 464.992 70.168C464.992 67.416 465.824 65.208 467.488 63.544C469.216 61.816 471.52 60.952 474.4 60.952C477.408 60.952 479.712 61.816 481.312 63.544C482.976 65.208 483.808 67.416 483.808 70.168C483.808 72.984 482.976 75.256 481.312 76.984C479.712 78.712 477.408 79.576 474.4 79.576Z" fill="#141414"/>
<defs>
<clipPath id="clip0_2_7">
<rect width="87.0833" height="95" fill="white"/>
</clipPath>
</defs>
</svg>
